<svg width="28" height="28" viewBox="0 0 28 28" fill="none" xmlns="http://www.w3.org/2000/svg">
<path d="M7 5.59995C7 4.82678 7.62683 4.19995 8.4 4.19995H26.6C27.3732 4.19995 28 4.82678 28 5.59995C28 6.37312 27.3732 6.99995 26.6 6.99995H8.4C7.62683 6.99995 7 6.37307 7 5.59995ZM26.6 12.6H1.4C0.626828 12.6 0 13.2268 0 14C0 14.7731 0.626828 15.4 1.4 15.4H26.6C27.3732 15.4 28 14.7731 28 14C28 13.2268 27.3732 12.6 26.6 12.6ZM26.6 21H14C13.2269 21 12.6 21.6268 12.6 22.4C12.6 23.1731 13.2269 23.8 14 23.8H26.6C27.3732 23.8 28 23.1731 28 22.4C28 21.6268 27.3732 21 26.6 21Z" fill="#0F304B"/>
</svg>
